<svg xmlns="http://www.w3.org/2000/svg" id="uuid-e9031d5a-f011-442f-b164-1639478bbadb" viewBox="0 0 308 64.3"><defs><style>      .st0 {        fill: #62257e;      }      .st1 {        fill: #431f4d;      }    </style></defs><path class="st1" d="M115.8,35.4c1.3,1.7,2,3.8,2,6.2,0,3.5-1.4,6.3-4.3,8.2s-7,2.9-12.4,2.9h-20.2c-.9,0-1.7-.8-1.7-1.7V13.8c0-.9.8-1.7,1.7-1.7h19.1c5.2,0,9.1,1,11.8,2.9,2.7,1.9,4,4.5,4,7.7s-.5,3.7-1.4,5.2-2.3,2.7-4,3.6c2.3.8,4.1,2.1,5.4,3.8h0ZM90.6,20.5v7.8h7.9c3.9,0,5.8-1.3,5.8-3.9s-1.9-3.9-5.8-3.9h-7.9ZM106.2,40.3c0-2.7-2-4.1-6-4.1h-9.6v8.2h9.6c4,0,6-1.4,6-4.1Z"></path><path class="st1" d="M132.8,11.5v39.6c0,.9-.7,1.7-1.7,1.7h-7.7c-.9,0-1.7-.8-1.7-1.7V11.5c0-.9.8-1.7,1.7-1.7h7.7c.9,0,1.7.8,1.7,1.7Z"></path><path class="st1" d="M145.9,51.2c-2.7-1.4-4.8-3.3-6.3-5.8s-2.3-5.3-2.3-8.4.8-5.9,2.3-8.3,3.6-4.4,6.3-5.8,5.7-2.1,9.1-2.1,6.4.7,9.1,2.1c2.7,1.4,4.8,3.3,6.3,5.7,1.5,2.5,2.3,5.2,2.3,8.4s-.8,5.9-2.3,8.4-3.6,4.4-6.3,5.8-5.8,2.1-9.1,2.1-6.4-.7-9.1-2.1ZM159.8,42.5c1.2-1.3,1.9-3.2,1.9-5.5s-.6-4.1-1.9-5.4c-1.2-1.3-2.8-2-4.8-2s-3.5.7-4.8,2c-1.3,1.3-1.9,3.1-1.9,5.4s.6,4.2,1.9,5.5c1.2,1.3,2.8,2,4.8,2s3.5-.7,4.8-2Z"></path><path class="st1" d="M184.6,51.2c-2.7-1.4-4.8-3.3-6.3-5.8s-2.3-5.3-2.3-8.4.8-5.9,2.3-8.3,3.6-4.4,6.3-5.8,5.7-2.1,9.1-2.1,6.4.7,9.1,2.1c2.7,1.4,4.8,3.3,6.3,5.7,1.5,2.5,2.3,5.2,2.3,8.4s-.8,5.9-2.3,8.4-3.6,4.4-6.3,5.8-5.8,2.1-9.1,2.1-6.4-.7-9.1-2.1ZM198.4,42.5c1.2-1.3,1.9-3.2,1.9-5.5s-.6-4.1-1.9-5.4c-1.2-1.3-2.8-2-4.8-2s-3.5.7-4.8,2c-1.3,1.3-1.9,3.1-1.9,5.4s.6,4.2,1.9,5.5,2.8,2,4.8,2,3.5-.7,4.8-2Z"></path><path class="st1" d="M269.5,34.8v16.3c0,.9-.8,1.7-1.7,1.7h-7.7c-.9,0-1.7-.8-1.7-1.7v-14.5c0-2.2-.4-3.8-1.2-4.9-.8-1-2-1.6-3.5-1.6s-3,.6-4,1.7c-1,1.2-1.5,2.9-1.5,5.3v13.9c0,.9-.8,1.7-1.7,1.7h-7.7c-.9,0-1.7-.8-1.7-1.7v-14.5c0-4.3-1.6-6.4-4.8-6.4s-3.1.6-4.1,1.7c-1,1.2-1.5,2.9-1.5,5.3v14.2c0,.7-.8,1.3-1.6,1.3h-7.7c-.9,0-1.7-.8-1.7-1.7v-9.8h0v-18.2c0-.9.8-1.7,1.7-1.7h6.1c.9,0,1.7.8,1.7,1.7v2.7l1.1-1.2c.2-.2.3-.3.5-.5,1.1-1,2.3-1.8,3.6-2.4,1.6-.6,3.4-1,5.2-1s4.2.4,5.9,1.2c1.7.8,3.1,2,4.2,3.7,1.2-1.6,2.8-2.8,4.7-3.7,1.9-.8,4-1.3,6.2-1.3,3.9,0,6.9,1.2,9.2,3.5,2.3,2.3,3.5,5.8,3.5,10.5h0l.2.4Z"></path><path class="st1" d="M307.4,45.9c.4.4.6.9.6,1.5s-.2,1.1-.6,1.5l-4.6,4.6c-.4.4-.9.6-1.5.6s-1.1-.2-1.5-.6l-8.7-8.7h0c0,0,0,0,0,0l-8.7,8.7c-.4.4-.9.6-1.5.6s-1.1-.2-1.5-.6l-4.6-4.6c-.4-.4-.6-.9-.6-1.5s.2-1.1.6-1.5l8.7-8.7h0c0,0,0-.2,0-.2l-8.7-8.7c-.8-.8-.8-2.1,0-2.9l4.6-4.6c.4-.4.9-.6,1.5-.6s1.1.2,1.5.6l8.7,8.7h.2l8.7-8.7c.4-.4.9-.6,1.5-.6s1.1.2,1.5.6l4.6,4.6c.4.4.6.9.6,1.5s-.2,1.1-.6,1.5l-8.7,8.7h0v.2c0,0,8.8,8.7,8.8,8.7h0Z"></path><path class="st0" d="M16.3,29.4h9.4c2.3,0,4.2-1.9,4.2-4.2v-8.3c0-.8-.3-1.5-.9-2.1L15.2.8c-1.1-1.1-2.8-1.1-3.9,0L.8,11.3c-1.1,1.1-1.1,2.8,0,3.9l13.4,13.4c.6.6,1.3.9,2.1.9h0Z"></path><path class="st0" d="M39.1,29.4h9.4c.8,0,1.5-.3,2.1-.9l13.4-13.4c1.1-1.1,1.1-2.8,0-3.9L53.6.8c-1.1-1.1-2.8-1.1-3.9,0l-13.9,13.9c-.6.6-.9,1.3-.9,2.1v8.3c0,2.3,1.9,4.2,4.2,4.2h0Z"></path><path class="st0" d="M48,34.4h-8.9c-2.3,0-4.2,1.9-4.2,4.2v8.9c0,.8.3,1.5.9,2.1l13.9,13.9c1.1,1.1,2.8,1.1,3.9,0l10.4-10.4c1.1-1.1,1.1-2.8,0-3.9l-13.9-13.9c-.6-.6-1.3-.9-2.1-.9h0Z"></path><path class="st0" d="M25.7,34.4h-8.9c-.8,0-1.5.3-2.1.9L.8,49.2c-1.1,1.1-1.1,2.8,0,3.9l10.4,10.4c1.1,1.1,2.8,1.1,3.9,0l13.9-13.9c.6-.6.9-1.3.9-2.1v-8.9c0-2.3-1.9-4.2-4.2-4.2h0Z"></path></svg>